<?xml version="1.0" standalone="no"?>
<!DOCTYPE svg PUBLIC "-//W3C//DTD SVG 20010904//EN"
 "http://www.w3.org/TR/2001/REC-SVG-20010904/DTD/svg10.dtd">
<svg version="1.0" xmlns="http://www.w3.org/2000/svg"
 width="298.000000pt" height="298.000000pt" viewBox="0 0 298.000000 298.000000"
 preserveAspectRatio="xMidYMid meet">
<metadata>
Created by potrace 1.11, written by Peter Selinger 2001-2013
</metadata>
<g transform="translate(0.000000,298.000000) scale(0.100000,-0.100000)"
fill="#000000" stroke="none">
<path d="M1273 2645 c-29 -8 -105 -41 -171 -74 -156 -78 -221 -98 -377 -117
-188 -23 -186 -26 36 -59 183 -27 238 -41 304 -79 108 -64 158 -201 121 -330
-16 -54 -28 -69 -164 -205 -158 -157 -202 -218 -227 -318 -13 -50 -14 -74 -5
-129 12 -72 19 -91 56 -141 l24 -32 -19 -33 c-32 -54 -54 -145 -47 -192 10
-64 48 -137 100 -189 26 -26 52 -47 57 -47 5 0 9 -26 9 -58 0 -32 7 -81 15
-110 17 -57 78 -140 118 -161 15 -8 27 -19 27 -25 0 -30 62 -136 101 -171 77
-71 141 -82 174 -31 13 20 14 37 5 112 -5 49 -10 118 -11 154 -1 48 -3 58 -9
40 l-8 -25 -2 25 -2 25 -8 -25 c-7 -23 -8 -24 -9 -3 -1 16 -6 21 -21 18 -15
-3 -20 2 -20 16 0 17 -3 18 -22 8 -19 -9 -21 -9 -10 2 14 16 16 33 2 24 -32
-20 2 24 82 106 167 171 213 274 212 469 -1 113 -16 189 -40 197 -5 2 -29 -13
-52 -33 -50 -42 -53 -33 -17 62 66 175 159 347 251 464 48 61 52 81 30 154
-13 44 -13 49 9 89 69 124 73 276 11 402 -43 86 -102 144 -191 186 -103 49
-212 61 -312 34z m-414 -1250 c-1 -69 -6 -125 -10 -125 -23 0 -39 81 -28 147
8 52 25 103 34 103 3 0 5 -56 4 -125z m39 -419 c-1 -149 -2 -153 -19 -132 -42
53 -49 170 -15 250 28 67 35 42 34 -118z m180 -181 c0 -13 -4 -22 -8 -20 -5 3
-5 -6 -1 -21 3 -14 3 -64 0 -111 -4 -47 -5 -103 -3 -124 4 -48 -8 -50 -35 -5
-16 26 -21 50 -21 109 0 42 5 88 11 104 8 22 50 93 55 93 1 0 2 -11 2 -25z
m146 -385 c6 -33 53 -149 85 -212 27 -54 3 -50 -59 8 -85 80 -110 164 -63 216
22 25 30 23 37 -12z"/>
</g>
</svg>
